<svg width="120" height="155" viewBox="0 0 120 155" fill="none" xmlns="http://www.w3.org/2000/svg">
<g style="mix-blend-mode:screen">
<path d="M26.5455 30.9091L45.3182 62.6364H46.0455L64.9091 30.9091H87.1364L58.7273 77.4545L87.7727 124H65.1364L46.0455 92.2273H45.3182L26.2273 124H3.68182L32.8182 77.4545L4.22727 30.9091H26.5455Z" fill="#263238"/>
<path d="M47.0909 124V30.9091H83.8182C90.8788 30.9091 96.8939 32.2576 101.864 34.9545C106.833 37.6212 110.621 41.3333 113.227 46.0909C115.864 50.8182 117.182 56.2727 117.182 62.4545C117.182 68.6364 115.848 74.0909 113.182 78.8182C110.515 83.5455 106.652 87.2273 101.591 89.8636C96.5606 92.5 90.4697 93.8182 83.3182 93.8182H59.9091V78.0455H80.1364C83.9242 78.0455 87.0455 77.3939 89.5 76.0909C91.9849 74.7576 93.8333 72.9242 95.0455 70.5909C96.2879 68.2273 96.9091 65.5151 96.9091 62.4545C96.9091 59.3636 96.2879 56.6667 95.0455 54.3636C93.8333 52.0303 91.9849 50.2273 89.5 48.9545C87.0152 47.6515 83.8636 47 80.0455 47H66.7727V124H47.0909Z" fill="#263238"/>
</g>
</svg>